<svg width="1292" height="409" viewBox="0 0 1292 409" fill="none" xmlns="http://www.w3.org/2000/svg">
<path d="M115.964 51.2599H92.0581C91.3762 47.3395 90.1191 43.8665 88.2868 40.8409C86.4544 37.7727 84.1745 35.1733 81.4473 33.0426C78.72 30.9119 75.6092 29.3139 72.1149 28.2486C68.6632 27.1406 64.9345 26.5867 60.9288 26.5867C53.8123 26.5867 47.5055 28.3764 42.0083 31.956C36.5112 35.4929 32.2072 40.6918 29.0964 47.5526C25.9856 54.3707 24.4302 62.7017 24.4302 72.5455C24.4302 82.5597 25.9856 90.9972 29.0964 97.858C32.2498 104.676 36.5538 109.832 42.0083 113.327C47.5055 116.778 53.791 118.504 60.8649 118.504C64.7853 118.504 68.4501 117.993 71.8592 116.97C75.3109 115.905 78.4004 114.349 81.1277 112.304C83.8976 110.259 86.22 107.744 88.095 104.761C90.0126 101.778 91.3336 98.3693 92.0581 94.5341L115.964 94.6619C115.069 100.884 113.131 106.722 110.148 112.176C107.207 117.631 103.351 122.446 98.5779 126.622C93.8052 130.756 88.2228 133.994 81.8308 136.338C75.4387 138.639 68.3436 139.79 60.5453 139.79C49.0396 139.79 38.7697 137.126 29.7356 131.8C20.7015 126.473 13.5851 118.781 8.38619 108.724C3.18732 98.6676 0.587891 86.608 0.587891 72.5455C0.587891 58.4403 3.20863 46.3807 8.45011 36.3665C13.6916 26.3097 20.8294 18.6179 29.8635 13.2912C38.8975 7.96449 49.1248 5.30114 60.5453 5.30114C67.8322 5.30114 74.6078 6.32386 80.872 8.36932C87.1362 10.4148 92.7186 13.419 97.6191 17.3821C102.52 21.3026 106.547 26.1179 109.7 31.8281C112.896 37.4957 114.984 43.973 115.964 51.2599Z" fill="white"/>
<path d="M136.659 138V39.8182H159.095V56.1818H160.117C161.907 50.5142 164.975 46.1463 169.322 43.0781C173.711 39.9673 178.718 38.4119 184.343 38.4119C185.622 38.4119 187.049 38.4759 188.626 38.6037C190.245 38.6889 191.588 38.8381 192.653 39.0511V60.3367C191.673 59.9957 190.117 59.6974 187.987 59.4418C185.899 59.1435 183.874 58.9943 181.914 58.9943C177.695 58.9943 173.903 59.9105 170.536 61.7429C167.213 63.5327 164.592 66.0256 162.674 69.2216C160.757 72.4176 159.798 76.1037 159.798 80.2798V138H136.659Z" fill="white"/>
<path d="M234.521 139.982C228.299 139.982 222.695 138.874 217.71 136.658C212.767 134.399 208.846 131.075 205.948 126.686C203.093 122.297 201.666 116.885 201.666 110.45C201.666 104.911 202.688 100.33 204.734 96.7074C206.779 93.0852 209.57 90.1875 213.107 88.0142C216.644 85.8409 220.629 84.2003 225.061 83.0923C229.535 81.9418 234.159 81.1108 238.931 80.5994C244.684 80.0028 249.35 79.4702 252.93 79.0014C256.509 78.4901 259.109 77.723 260.728 76.7003C262.39 75.6349 263.221 73.9943 263.221 71.7784V71.3949C263.221 66.5795 261.793 62.8509 258.938 60.2088C256.083 57.5668 251.971 56.2457 246.602 56.2457C240.934 56.2457 236.438 57.4815 233.115 59.9531C229.833 62.4247 227.617 65.3438 226.467 68.7102L204.862 65.6421C206.566 59.6761 209.379 54.6903 213.299 50.6847C217.22 46.6364 222.014 43.6108 227.681 41.608C233.349 39.5625 239.613 38.5398 246.474 38.5398C251.204 38.5398 255.913 39.0938 260.6 40.2017C265.288 41.3097 269.57 43.142 273.448 45.6989C277.326 48.2131 280.437 51.6435 282.781 55.9901C285.167 60.3367 286.36 65.7699 286.36 72.2898V138H264.116V124.513H263.349C261.943 127.24 259.961 129.797 257.404 132.183C254.89 134.527 251.715 136.423 247.88 137.872C244.088 139.278 239.634 139.982 234.521 139.982ZM240.529 122.979C245.174 122.979 249.201 122.063 252.61 120.23C256.019 118.355 258.64 115.884 260.472 112.815C262.347 109.747 263.285 106.402 263.285 102.78V91.2102C262.561 91.8068 261.325 92.3608 259.578 92.8722C257.873 93.3835 255.955 93.831 253.825 94.2145C251.694 94.598 249.585 94.9389 247.497 95.2372C245.409 95.5355 243.597 95.7912 242.063 96.0043C238.612 96.473 235.522 97.2401 232.795 98.3054C230.068 99.3707 227.916 100.862 226.339 102.78C224.762 104.655 223.974 107.084 223.974 110.067C223.974 114.328 225.529 117.545 228.64 119.719C231.751 121.892 235.714 122.979 240.529 122.979Z" fill="white"/>
<path d="M359.357 39.8182V57.7159H301.318V39.8182H359.357ZM315.828 138V30.5497C315.828 23.9446 317.191 18.4474 319.918 14.0582C322.688 9.66904 326.396 6.38779 331.041 4.21449C335.686 2.04119 340.842 0.954543 346.509 0.954543C350.515 0.954543 354.073 1.27415 357.184 1.91336C360.295 2.55256 362.596 3.12784 364.088 3.63921L359.485 21.5369C358.505 21.2386 357.269 20.9403 355.778 20.642C354.286 20.3011 352.624 20.1307 350.792 20.1307C346.488 20.1307 343.441 21.1747 341.651 23.2628C339.904 25.3082 339.031 28.2486 339.031 32.0838V138H315.828Z" fill="white"/>
<path d="M426.506 39.8182V57.7159H370.064V39.8182H426.506ZM383.999 16.2955H407.138V108.469C407.138 111.58 407.607 113.966 408.544 115.628C409.524 117.247 410.803 118.355 412.379 118.952C413.956 119.548 415.703 119.847 417.621 119.847C419.07 119.847 420.391 119.74 421.584 119.527C422.82 119.314 423.757 119.122 424.396 118.952L428.296 137.041C427.06 137.467 425.291 137.936 422.99 138.447C420.732 138.959 417.962 139.257 414.681 139.342C408.885 139.513 403.665 138.639 399.02 136.722C394.375 134.761 390.689 131.736 387.962 127.645C385.277 123.554 383.956 118.44 383.999 112.304V16.2955Z" fill="white"/>
<path d="M445.858 138V39.8182H468.997V138H445.858ZM457.491 25.8835C453.827 25.8835 450.673 24.669 448.031 22.2401C445.389 19.7685 444.068 16.8068 444.068 13.3551C444.068 9.8608 445.389 6.89915 448.031 4.47017C450.673 1.99858 453.827 0.762787 457.491 0.762787C461.199 0.762787 464.352 1.99858 466.952 4.47017C469.594 6.89915 470.915 9.8608 470.915 13.3551C470.915 16.8068 469.594 19.7685 466.952 22.2401C464.352 24.669 461.199 25.8835 457.491 25.8835Z" fill="white"/>
<path d="M515.931 80.4716V138H492.791V39.8182H514.908V56.5014H516.058C518.317 51.0043 521.918 46.6364 526.861 43.3977C531.847 40.1591 538.004 38.5398 545.334 38.5398C552.11 38.5398 558.012 39.9886 563.04 42.8864C568.111 45.7841 572.031 49.9815 574.801 55.4787C577.614 60.9759 578.999 67.6449 578.956 75.4858V138H555.817V79.0653C555.817 72.5028 554.112 67.3679 550.703 63.6605C547.337 59.9531 542.671 58.0994 536.705 58.0994C532.656 58.0994 529.056 58.9943 525.902 60.7841C522.791 62.5313 520.341 65.0668 518.551 68.3906C516.804 71.7145 515.931 75.7415 515.931 80.4716Z" fill="white"/>
<path d="M645.178 176.864C636.868 176.864 629.73 175.734 623.764 173.476C617.798 171.26 613.004 168.277 609.382 164.527C605.76 160.777 603.246 156.622 601.84 152.062L622.678 147.013C623.615 148.93 624.979 150.827 626.769 152.702C628.558 154.619 630.966 156.196 633.992 157.432C637.06 158.71 640.916 159.349 645.561 159.349C652.124 159.349 657.557 157.751 661.861 154.555C666.165 151.402 668.317 146.203 668.317 138.959V120.358H667.166C665.973 122.744 664.226 125.195 661.925 127.709C659.666 130.223 656.662 132.332 652.912 134.037C649.205 135.741 644.539 136.594 638.914 136.594C631.371 136.594 624.531 134.825 618.395 131.288C612.301 127.709 607.443 122.382 603.821 115.308C600.242 108.192 598.452 99.2855 598.452 88.5895C598.452 77.8082 600.242 68.7102 603.821 61.2955C607.443 53.8381 612.323 48.1918 618.459 44.3565C624.595 40.4787 631.435 38.5398 638.977 38.5398C644.73 38.5398 649.46 39.5199 653.168 41.4801C656.918 43.3977 659.901 45.7202 662.117 48.4474C664.333 51.1321 666.016 53.6676 667.166 56.054H668.445V39.8182H691.264V139.598C691.264 147.993 689.262 154.939 685.256 160.436C681.25 165.933 675.774 170.045 668.828 172.773C661.882 175.5 653.999 176.864 645.178 176.864ZM645.37 118.44C650.27 118.44 654.446 117.247 657.898 114.861C661.35 112.474 663.97 109.044 665.76 104.57C667.55 100.095 668.445 94.7259 668.445 88.4617C668.445 82.2827 667.55 76.8707 665.76 72.2259C664.013 67.581 661.414 63.9801 657.962 61.4233C654.553 58.8239 650.355 57.5242 645.37 57.5242C640.213 57.5242 635.909 58.8665 632.458 61.5511C629.006 64.2358 626.406 67.9219 624.659 72.6094C622.912 77.2543 622.039 82.5384 622.039 88.4617C622.039 94.4702 622.912 99.733 624.659 104.25C626.449 108.724 629.07 112.219 632.521 114.733C636.016 117.205 640.298 118.44 645.37 118.44Z" fill="white"/>
<path d="M805.011 138H760.65V7.09091H805.906C818.903 7.09091 830.068 9.71165 839.4 14.9531C848.775 20.152 855.977 27.6307 861.005 37.3892C866.034 47.1477 868.548 58.8239 868.548 72.4176C868.548 86.054 866.012 97.7727 860.941 107.574C855.913 117.375 848.647 124.896 839.144 130.138C829.684 135.379 818.306 138 805.011 138ZM784.365 117.482H803.86C812.98 117.482 820.586 115.82 826.68 112.496C832.774 109.129 837.355 104.122 840.423 97.4744C843.491 90.7841 845.025 82.4318 845.025 72.4176C845.025 62.4034 843.491 54.0938 840.423 47.4886C837.355 40.8409 832.816 35.8764 826.808 32.5952C820.842 29.2713 813.427 27.6094 804.563 27.6094H784.365V117.482Z" fill="white"/>
<path d="M890.057 138V39.8182H913.196V138H890.057ZM901.69 25.8835C898.026 25.8835 894.872 24.669 892.23 22.2401C889.588 19.7685 888.267 16.8068 888.267 13.3551C888.267 9.8608 889.588 6.89915 892.23 4.47017C894.872 1.99858 898.026 0.762787 901.69 0.762787C905.398 0.762787 908.551 1.99858 911.151 4.47017C913.793 6.89915 915.114 9.8608 915.114 13.3551C915.114 16.8068 913.793 19.7685 911.151 22.2401C908.551 24.669 905.398 25.8835 901.69 25.8835Z" fill="white"/>
<path d="M979.689 176.864C971.38 176.864 964.242 175.734 958.276 173.476C952.31 171.26 947.516 168.277 943.894 164.527C940.272 160.777 937.758 156.622 936.351 152.062L957.189 147.013C958.127 148.93 959.491 150.827 961.28 152.702C963.07 154.619 965.478 156.196 968.503 157.432C971.572 158.71 975.428 159.349 980.073 159.349C986.635 159.349 992.069 157.751 996.373 154.555C1000.68 151.402 1002.83 146.203 1002.83 138.959V120.358H1001.68C1000.48 122.744 998.738 125.195 996.437 127.709C994.178 130.223 991.174 132.332 987.424 134.037C983.716 135.741 979.05 136.594 973.425 136.594C965.883 136.594 959.043 134.825 952.907 131.288C946.813 127.709 941.955 122.382 938.333 115.308C934.753 108.192 932.964 99.2855 932.964 88.5895C932.964 77.8082 934.753 68.7102 938.333 61.2955C941.955 53.8381 946.834 48.1918 952.971 44.3565C959.107 40.4787 965.947 38.5398 973.489 38.5398C979.242 38.5398 983.972 39.5199 987.68 41.4801C991.43 43.3977 994.412 45.7202 996.628 48.4474C998.844 51.1321 1000.53 53.6676 1001.68 56.054H1002.96V39.8182H1025.78V139.598C1025.78 147.993 1023.77 154.939 1019.77 160.436C1015.76 165.933 1010.29 170.045 1003.34 172.773C996.394 175.5 988.51 176.864 979.689 176.864ZM979.881 118.44C984.782 118.44 988.958 117.247 992.41 114.861C995.861 112.474 998.482 109.044 1000.27 104.57C1002.06 100.095 1002.96 94.7259 1002.96 88.4617C1002.96 82.2827 1002.06 76.8707 1000.27 72.2259C998.525 67.581 995.925 63.9801 992.474 61.4233C989.064 58.8239 984.867 57.5242 979.881 57.5242C974.725 57.5242 970.421 58.8665 966.969 61.5511C963.518 64.2358 960.918 67.9219 959.171 72.6094C957.424 77.2543 956.55 82.5384 956.55 88.4617C956.55 94.4702 957.424 99.733 959.171 104.25C960.961 108.724 963.581 112.219 967.033 114.733C970.528 117.205 974.81 118.44 979.881 118.44Z" fill="white"/>
<path d="M1049.49 138V39.8182H1072.63V138H1049.49ZM1061.12 25.8835C1057.46 25.8835 1054.31 24.669 1051.66 22.2401C1049.02 19.7685 1047.7 16.8068 1047.7 13.3551C1047.7 9.8608 1049.02 6.89915 1051.66 4.47017C1054.31 1.99858 1057.46 0.762787 1061.12 0.762787C1064.83 0.762787 1067.98 1.99858 1070.58 4.47017C1073.23 6.89915 1074.55 9.8608 1074.55 13.3551C1074.55 16.8068 1073.23 19.7685 1070.58 22.2401C1067.98 24.669 1064.83 25.8835 1061.12 25.8835Z" fill="white"/>
<path d="M1145.45 39.8182V57.7159H1089.01V39.8182H1145.45ZM1102.94 16.2955H1126.08V108.469C1126.08 111.58 1126.55 113.966 1127.49 115.628C1128.47 117.247 1129.75 118.355 1131.32 118.952C1132.9 119.548 1134.65 119.847 1136.57 119.847C1138.02 119.847 1139.34 119.74 1140.53 119.527C1141.77 119.314 1142.7 119.122 1143.34 118.952L1147.24 137.041C1146.01 137.467 1144.24 137.936 1141.94 138.447C1139.68 138.959 1136.91 139.257 1133.63 139.342C1127.83 139.513 1122.61 138.639 1117.97 136.722C1113.32 134.761 1109.63 131.736 1106.91 127.645C1104.22 123.554 1102.9 118.44 1102.94 112.304V16.2955Z" fill="white"/>
<path d="M1193.06 139.982C1186.83 139.982 1181.23 138.874 1176.24 136.658C1171.3 134.399 1167.38 131.075 1164.48 126.686C1161.63 122.297 1160.2 116.885 1160.2 110.45C1160.2 104.911 1161.22 100.33 1163.27 96.7074C1165.31 93.0852 1168.11 90.1875 1171.64 88.0142C1175.18 85.8409 1179.16 84.2003 1183.6 83.0923C1188.07 81.9418 1192.69 81.1108 1197.47 80.5994C1203.22 80.0028 1207.89 79.4702 1211.46 79.0014C1215.04 78.4901 1217.64 77.723 1219.26 76.7003C1220.93 75.6349 1221.76 73.9943 1221.76 71.7784V71.3949C1221.76 66.5795 1220.33 62.8509 1217.47 60.2088C1214.62 57.5668 1210.51 56.2457 1205.14 56.2457C1199.47 56.2457 1194.97 57.4815 1191.65 59.9531C1188.37 62.4247 1186.15 65.3438 1185 68.7102L1163.4 65.6421C1165.1 59.6761 1167.91 54.6903 1171.83 50.6847C1175.75 46.6364 1180.55 43.6108 1186.22 41.608C1191.88 39.5625 1198.15 38.5398 1205.01 38.5398C1209.74 38.5398 1214.45 39.0938 1219.14 40.2017C1223.82 41.3097 1228.11 43.142 1231.98 45.6989C1235.86 48.2131 1238.97 51.6435 1241.32 55.9901C1243.7 60.3367 1244.9 65.7699 1244.9 72.2898V138H1222.65V124.513H1221.88C1220.48 127.24 1218.5 129.797 1215.94 132.183C1213.43 134.527 1210.25 136.423 1206.42 137.872C1202.62 139.278 1198.17 139.982 1193.06 139.982ZM1199.06 122.979C1203.71 122.979 1207.74 122.063 1211.15 120.23C1214.55 118.355 1217.18 115.884 1219.01 112.815C1220.88 109.747 1221.82 106.402 1221.82 102.78V91.2102C1221.1 91.8068 1219.86 92.3608 1218.11 92.8722C1216.41 93.3835 1214.49 93.831 1212.36 94.2145C1210.23 94.598 1208.12 94.9389 1206.03 95.2372C1203.94 95.5355 1202.13 95.7912 1200.6 96.0043C1197.15 96.473 1194.06 97.2401 1191.33 98.3054C1188.6 99.3707 1186.45 100.862 1184.87 102.78C1183.3 104.655 1182.51 107.084 1182.51 110.067C1182.51 114.328 1184.06 117.545 1187.18 119.719C1190.29 121.892 1194.25 122.979 1199.06 122.979Z" fill="white"/>
<path d="M1291.3 7.09091V138H1268.16V7.09091H1291.3Z" fill="white"/>
<path d="M3.91175 372V241.091H89.0538V260.97H27.6262V296.51H84.6433V316.389H27.6262V352.121H89.5652V372H3.91175Z" fill="white"/>
<path d="M131.145 273.818L150.961 310.061L171.096 273.818H195.577L165.982 322.909L196.089 372H171.735L150.961 336.652L130.378 372H105.833L135.748 322.909L106.6 273.818H131.145Z" fill="white"/>
<path d="M213.475 408.818V273.818H236.231V290.054H237.573C238.766 287.668 240.449 285.132 242.623 282.447C244.796 279.72 247.736 277.398 251.444 275.48C255.151 273.52 259.881 272.54 265.634 272.54C273.219 272.54 280.059 274.479 286.153 278.357C292.289 282.192 297.147 287.881 300.726 295.423C304.349 302.923 306.16 312.128 306.16 323.037C306.16 333.818 304.391 342.98 300.854 350.523C297.317 358.065 292.502 363.818 286.408 367.781C280.314 371.744 273.411 373.726 265.698 373.726C260.073 373.726 255.407 372.788 251.699 370.913C247.992 369.038 245.009 366.78 242.751 364.138C240.535 361.453 238.809 358.918 237.573 356.531H236.614V408.818H213.475ZM236.167 322.909C236.167 329.259 237.062 334.82 238.851 339.592C240.684 344.365 243.305 348.094 246.714 350.778C250.165 353.42 254.341 354.741 259.242 354.741C264.356 354.741 268.638 353.378 272.09 350.651C275.542 347.881 278.141 344.109 279.888 339.337C281.678 334.521 282.573 329.045 282.573 322.909C282.573 316.815 281.699 311.403 279.952 306.673C278.205 301.943 275.606 298.236 272.154 295.551C268.702 292.866 264.398 291.524 259.242 291.524C254.299 291.524 250.101 292.824 246.65 295.423C243.198 298.023 240.577 301.666 238.787 306.354C237.04 311.041 236.167 316.56 236.167 322.909Z" fill="white"/>
<path d="M369.441 373.918C359.597 373.918 351.096 371.872 343.937 367.781C336.82 363.648 331.344 357.81 327.509 350.267C323.674 342.682 321.756 333.754 321.756 323.484C321.756 313.385 323.674 304.521 327.509 296.893C331.387 289.223 336.799 283.257 343.745 278.996C350.691 274.692 358.851 272.54 368.226 272.54C374.278 272.54 379.988 273.52 385.357 275.48C390.769 277.398 395.542 280.381 399.675 284.429C403.851 288.477 407.133 293.634 409.519 299.898C411.905 306.119 413.099 313.534 413.099 322.142V329.237H332.623V313.641H390.918C390.876 309.209 389.917 305.267 388.042 301.815C386.167 298.321 383.546 295.572 380.18 293.57C376.856 291.567 372.978 290.565 368.546 290.565C363.816 290.565 359.661 291.716 356.082 294.017C352.502 296.276 349.711 299.259 347.708 302.966C345.748 306.631 344.746 310.658 344.704 315.047V328.662C344.704 334.372 345.748 339.273 347.836 343.364C349.924 347.412 352.843 350.523 356.593 352.696C360.343 354.827 364.732 355.892 369.76 355.892C373.127 355.892 376.174 355.423 378.901 354.486C381.628 353.506 383.993 352.078 385.996 350.203C387.999 348.328 389.512 346.006 390.535 343.236L412.14 345.665C410.776 351.375 408.177 356.361 404.341 360.622C400.549 364.841 395.691 368.122 389.768 370.466C383.844 372.767 377.069 373.918 369.441 373.918Z" fill="white"/>
<path d="M432.674 372V273.818H455.11V290.182H456.133C457.923 284.514 460.991 280.146 465.338 277.078C469.727 273.967 474.734 272.412 480.359 272.412C481.637 272.412 483.065 272.476 484.642 272.604C486.261 272.689 487.603 272.838 488.668 273.051V294.337C487.688 293.996 486.133 293.697 484.002 293.442C481.914 293.143 479.89 292.994 477.93 292.994C473.711 292.994 469.919 293.911 466.552 295.743C463.228 297.533 460.607 300.026 458.69 303.222C456.772 306.418 455.813 310.104 455.813 314.28V372H432.674Z" fill="white"/>
<path d="M504.041 372V273.818H527.181V372H504.041ZM515.675 259.884C512.01 259.884 508.857 258.669 506.215 256.24C503.573 253.768 502.252 250.807 502.252 247.355C502.252 243.861 503.573 240.899 506.215 238.47C508.857 235.999 512.01 234.763 515.675 234.763C519.382 234.763 522.536 235.999 525.135 238.47C527.777 240.899 529.098 243.861 529.098 247.355C529.098 250.807 527.777 253.768 525.135 256.24C522.536 258.669 519.382 259.884 515.675 259.884Z" fill="white"/>
<path d="M594.441 373.918C584.597 373.918 576.096 371.872 568.937 367.781C561.82 363.648 556.344 357.81 552.509 350.267C548.674 342.682 546.756 333.754 546.756 323.484C546.756 313.385 548.674 304.521 552.509 296.893C556.387 289.223 561.799 283.257 568.745 278.996C575.691 274.692 583.851 272.54 593.226 272.54C599.278 272.54 604.988 273.52 610.357 275.48C615.769 277.398 620.542 280.381 624.675 284.429C628.851 288.477 632.133 293.634 634.519 299.898C636.905 306.119 638.099 313.534 638.099 322.142V329.237H557.623V313.641H615.918C615.876 309.209 614.917 305.267 613.042 301.815C611.167 298.321 608.546 295.572 605.18 293.57C601.856 291.567 597.978 290.565 593.546 290.565C588.816 290.565 584.661 291.716 581.081 294.017C577.502 296.276 574.711 299.259 572.708 302.966C570.748 306.631 569.746 310.658 569.704 315.047V328.662C569.704 334.372 570.748 339.273 572.836 343.364C574.924 347.412 577.843 350.523 581.593 352.696C585.343 354.827 589.732 355.892 594.76 355.892C598.127 355.892 601.174 355.423 603.901 354.486C606.628 353.506 608.993 352.078 610.996 350.203C612.999 348.328 614.512 346.006 615.535 343.236L637.14 345.665C635.776 351.375 633.177 356.361 629.341 360.622C625.549 364.841 620.691 368.122 614.768 370.466C608.844 372.767 602.069 373.918 594.441 373.918Z" fill="white"/>
<path d="M680.813 314.472V372H657.674V273.818H679.791V290.501H680.941C683.2 285.004 686.801 280.636 691.744 277.398C696.73 274.159 702.887 272.54 710.217 272.54C716.992 272.54 722.894 273.989 727.923 276.886C732.994 279.784 736.914 283.982 739.684 289.479C742.497 294.976 743.882 301.645 743.839 309.486V372H720.7V313.065C720.7 306.503 718.995 301.368 715.586 297.661C712.22 293.953 707.553 292.099 701.588 292.099C697.539 292.099 693.938 292.994 690.785 294.784C687.674 296.531 685.224 299.067 683.434 302.391C681.687 305.714 680.813 309.741 680.813 314.472Z" fill="white"/>
<path d="M810.188 373.918C800.387 373.918 791.971 371.766 784.94 367.462C777.951 363.158 772.561 357.213 768.768 349.628C765.018 342 763.143 333.222 763.143 323.293C763.143 313.321 765.061 304.521 768.896 296.893C772.731 289.223 778.143 283.257 785.132 278.996C792.163 274.692 800.472 272.54 810.061 272.54C818.029 272.54 825.082 274.01 831.218 276.95C837.397 279.848 842.319 283.96 845.984 289.287C849.649 294.571 851.737 300.75 852.248 307.824H830.132C829.237 303.094 827.106 299.152 823.74 295.999C820.416 292.803 815.963 291.205 810.38 291.205C805.65 291.205 801.495 292.483 797.916 295.04C794.336 297.554 791.545 301.176 789.542 305.906C787.582 310.636 786.602 316.304 786.602 322.909C786.602 329.599 787.582 335.352 789.542 340.168C791.502 344.94 794.251 348.626 797.788 351.226C801.367 353.783 805.565 355.061 810.38 355.061C813.789 355.061 816.836 354.422 819.521 353.143C822.248 351.822 824.528 349.926 826.36 347.455C828.193 344.983 829.45 341.979 830.132 338.442H852.248C851.694 345.388 849.649 351.545 846.112 356.915C842.575 362.241 837.759 366.418 831.666 369.443C825.572 372.426 818.413 373.918 810.188 373.918Z" fill="white"/>
<path d="M914.714 373.918C904.871 373.918 896.369 371.872 889.21 367.781C882.094 363.648 876.618 357.81 872.782 350.267C868.947 342.682 867.03 333.754 867.03 323.484C867.03 313.385 868.947 304.521 872.782 296.893C876.66 289.223 882.072 283.257 889.018 278.996C895.964 274.692 904.125 272.54 913.5 272.54C919.551 272.54 925.261 273.52 930.63 275.48C936.042 277.398 940.815 280.381 944.949 284.429C949.125 288.477 952.406 293.634 954.792 299.898C957.179 306.119 958.372 313.534 958.372 322.142V329.237H877.896V313.641H936.192C936.149 309.209 935.19 305.267 933.315 301.815C931.44 298.321 928.819 295.572 925.453 293.57C922.129 291.567 918.251 290.565 913.819 290.565C909.089 290.565 904.934 291.716 901.355 294.017C897.775 296.276 894.984 299.259 892.981 302.966C891.021 306.631 890.02 310.658 889.977 315.047V328.662C889.977 334.372 891.021 339.273 893.109 343.364C895.197 347.412 898.116 350.523 901.866 352.696C905.616 354.827 910.006 355.892 915.034 355.892C918.4 355.892 921.447 355.423 924.175 354.486C926.902 353.506 929.267 352.078 931.27 350.203C933.273 348.328 934.785 346.006 935.808 343.236L957.413 345.665C956.05 351.375 953.45 356.361 949.615 360.622C945.822 364.841 940.964 368.122 935.041 370.466C929.118 372.767 922.342 373.918 914.714 373.918Z" fill="white"/>
<path d="M1055.55 299.77L1034.45 302.071C1033.86 299.94 1032.81 297.938 1031.32 296.062C1029.87 294.188 1027.91 292.675 1025.44 291.524C1022.97 290.374 1019.94 289.798 1016.36 289.798C1011.55 289.798 1007.5 290.842 1004.22 292.93C1000.98 295.018 999.382 297.724 999.425 301.048C999.382 303.903 1000.43 306.226 1002.56 308.016C1004.73 309.805 1008.31 311.276 1013.3 312.426L1030.04 316.006C1039.33 318.009 1046.24 321.183 1050.75 325.53C1055.31 329.876 1057.61 335.565 1057.66 342.597C1057.61 348.776 1055.8 354.23 1052.22 358.96C1048.69 363.648 1043.76 367.313 1037.46 369.955C1031.15 372.597 1023.91 373.918 1015.72 373.918C1003.71 373.918 994.034 371.403 986.705 366.375C979.375 361.304 975.007 354.251 973.601 345.217L996.165 343.044C997.188 347.476 999.361 350.821 1002.68 353.08C1006.01 355.338 1010.33 356.467 1015.66 356.467C1021.16 356.467 1025.57 355.338 1028.89 353.08C1032.26 350.821 1033.94 348.03 1033.94 344.706C1033.94 341.893 1032.86 339.571 1030.68 337.739C1028.55 335.906 1025.23 334.5 1020.71 333.52L1003.96 330.004C994.546 328.044 987.578 324.741 983.061 320.097C978.544 315.409 976.307 309.486 976.35 302.327C976.307 296.276 977.948 291.034 981.271 286.602C984.638 282.128 989.304 278.676 995.27 276.247C1001.28 273.776 1008.2 272.54 1016.04 272.54C1027.55 272.54 1036.61 274.99 1043.21 279.891C1049.86 284.791 1053.97 291.418 1055.55 299.77Z" fill="white"/>
</svg>
