<svg width="200" height="33" viewBox="0 0 200 33" fill="none" xmlns="http://www.w3.org/2000/svg">
<path d="M55.5596 19.0564C55.5596 13.1593 44.8141 15.1637 44.8141 13.0721C44.8141 12.1426 46.2272 11.7068 47.8464 11.7068C50.231 11.7068 51.6147 12.433 51.6147 13.3626H55.2357C55.2357 11.3292 53.2633 8.80184 48.0524 8.80184C43.401 8.80184 41.193 10.8353 41.193 13.1012C41.193 18.3301 51.8796 16.4419 51.8796 19.2888C51.8796 20.1022 51.1436 20.8865 48.9062 20.8865C46.1389 20.8865 44.6963 19.5793 44.6963 18.824H41.0752C41.0752 21.2641 43.4599 24.2272 48.5235 24.2272C53.3222 24.2272 55.5596 21.8742 55.5596 19.0564Z" fill="#0F172A"/>
<path d="M57.8083 16.4128C57.8083 21.1479 61.0466 24.1982 65.9042 24.2272C70.6145 24.1982 73.1169 21.3513 73.5879 18.5044H69.7313C69.643 18.824 68.5832 20.8574 65.7864 20.8574C63.078 20.8284 61.3705 18.9692 61.3705 16.3838C61.3999 13.7693 63.0191 12.1426 65.6686 12.1426C68.5243 12.1426 69.5547 14.176 69.643 14.4665H73.4996C73.2052 11.7649 70.6145 8.80184 65.757 8.80184C60.9877 8.80184 57.8083 11.6778 57.8083 16.4128Z" fill="#0F172A"/>
<path d="M81.1157 10.2543C80.2031 10.9225 79.7321 12.3749 79.2905 13.3917L78.6722 13.1302C79.1138 12.1135 79.7321 10.7772 79.7321 9.67333V9.23759H76.1404V23.7624H79.7321V17.4296C79.7321 13.3917 83.5298 12.1135 87.1803 12.1135V8.80184C84.2952 8.80184 82.676 9.06329 81.1157 10.2543Z" fill="#0F172A"/>
<path d="M100.984 22.3099C101.572 21.6418 101.69 20.4507 101.955 19.6374L102.603 19.8407C102.338 20.6541 101.808 21.6999 101.808 22.5714L101.778 23.7624H105.4V9.23759H101.778L101.808 10.3415C101.808 11.213 102.338 12.2297 102.603 13.0721L101.985 13.2755C101.69 12.433 101.572 11.242 100.954 10.6029C99.8943 9.46999 98.3635 8.80184 96.391 8.80184C92.0045 8.80184 88.9133 12.0845 88.9133 16.4128C88.9133 20.7412 92.0045 24.2272 96.391 24.2272C98.3635 24.2272 99.8943 23.501 100.984 22.3099ZM92.5344 16.4128C92.5344 13.9436 94.1536 12.1135 96.5971 12.1135C99.2761 12.1135 100.719 13.8565 100.719 16.4128C100.63 18.7949 99.0111 20.9155 96.5971 20.9155C94.1536 20.9155 92.5344 18.853 92.5344 16.4128Z" fill="#0F172A"/>
<path d="M112.881 22.6295C112.881 21.758 112.351 20.7412 112.086 19.8988L112.704 19.6955C112.999 20.5089 113.146 21.6999 113.764 22.3099C114.854 23.4429 116.384 24.1982 118.327 24.1982C122.596 24.1982 125.57 20.625 125.687 16.4419C125.776 12.1426 122.743 8.77279 118.327 8.77279C116.355 8.77279 114.824 9.44093 113.735 10.5739C113.146 11.1839 112.999 12.3749 112.704 13.2174L112.086 13.014C112.381 12.1716 112.881 11.1549 112.881 10.2834V9.23759L109.26 9.26664V31.0539L112.881 31.0248V22.6295ZM117.827 12.0845C120.594 12.0845 122.066 13.9436 122.066 16.3838C122.066 18.853 120.594 20.8865 117.827 20.8865C115.089 20.8865 113.529 18.853 113.529 16.3838C113.529 13.9436 115.089 12.0845 117.827 12.0845Z" fill="#0F172A"/>
<path d="M131.683 2.70142L128.091 2.67237V23.7334L131.683 23.7624V22.7166C131.683 21.8451 131.182 20.8284 130.917 19.986L131.536 19.7826C131.801 20.625 131.948 21.8161 132.566 22.4261C133.655 23.5591 135.157 24.2272 137.1 24.2272C141.516 24.2272 144.607 20.8574 144.489 16.5581C144.401 12.3749 141.339 8.80184 137.129 8.80184C135.157 8.80184 133.655 9.55713 132.595 10.661C131.977 11.3001 131.801 12.4911 131.536 13.3045L130.888 13.1012C131.182 12.2588 131.683 11.242 131.683 10.3705V2.70142ZM136.629 20.8865C133.891 20.8865 132.36 19.0564 132.36 16.6162C132.36 14.147 133.891 12.1135 136.629 12.1135C139.367 12.1135 140.897 14.147 140.897 16.6162C140.897 19.0564 139.367 20.8865 136.629 20.8865Z" fill="#0F172A"/>
<path d="M146.361 16.4709C146.361 21.1479 149.687 24.2272 154.751 24.2272C159.844 24.2272 163.171 20.9736 163.171 16.4709C163.171 11.9973 159.844 8.80184 154.751 8.80184C149.687 8.80184 146.361 11.794 146.361 16.4709ZM150.188 16.4709C150.188 14.0889 151.483 12.2297 154.751 12.2297C158.019 12.2297 159.344 14.0889 159.344 16.4709C159.344 18.853 158.019 20.7993 154.751 20.7993C151.513 20.7993 150.188 18.853 150.188 16.4709Z" fill="#0F172A"/>
<path d="M164.876 16.4709C164.876 21.1479 168.202 24.2272 173.266 24.2272C178.359 24.2272 181.686 20.9736 181.686 16.4709C181.686 11.9973 178.359 8.80184 173.266 8.80184C168.202 8.80184 164.876 11.794 164.876 16.4709ZM168.703 16.4709C168.703 14.0889 169.998 12.2297 173.266 12.2297C176.534 12.2297 177.858 14.0889 177.858 16.4709C177.858 18.853 176.534 20.7993 173.266 20.7993C170.027 20.7993 168.703 18.853 168.703 16.4709Z" fill="#0F172A"/>
<path d="M188.925 12.8397C188.101 13.5369 187.571 14.7861 187.129 15.7738L186.511 15.5123C186.982 14.5246 187.571 13.3045 187.571 12.2297V2.70142H183.95V23.7624H187.571L187.512 18.2139L188.954 16.9648L194.607 23.7915H199.111L191.398 14.8732L197.58 9.26664H193.076L188.925 12.8397Z" fill="#0F172A"/>
<path d="M21.282 0.5H3.04028C1.36116 0.5 0 1.84312 0 3.5V32.5L12.1611 25.5L24.3222 32.5V3.5C24.3222 1.84312 22.9611 0.5 21.282 0.5ZM21.282 27.2769L12.1611 22.0269L3.04028 27.2769V3.875C3.04028 3.77554 3.08032 3.68016 3.15159 3.60983C3.22286 3.53951 3.31952 3.5 3.42031 3.5H20.9019C21.1118 3.5 21.282 3.66769 21.282 3.87475V27.2769Z" fill="#2563EB"/>
</svg>
