<svg fill="none" height="25" viewBox="0 0 150 25" width="150" xmlns="http://www.w3.org/2000/svg"><g fill="#000"><path d="m41.6697 14.4173c0-4.42283-8.0591-2.9195-8.0591-4.48819 0-.6972 1.0598-1.024 2.2742-1.024 1.7884 0 2.8262.54468 2.8262 1.24189h2.7158c0-1.52513-1.4793-3.42062-5.3875-3.42062-3.4886 0-5.1445 1.52511-5.1445 3.22451 0 3.92171 8.0149 2.50551 8.0149 4.64071 0 .61-.552 1.1983-2.23 1.1983-2.0755 0-3.1575-.9805-3.1575-1.5469h-2.7158c0 1.8301 1.7885 4.0524 5.5862 4.0524 3.599 0 5.2771-1.7648 5.2771-3.8781z"/><path d="m43.3562 12.4346c0 3.5514 2.4288 5.839 6.0719 5.8608 3.5328-.0218 5.4096-2.1569 5.7628-4.2921h-2.8924c-.0662.2397-.8611 1.7648-2.9587 1.7648-2.0313-.0218-3.312-1.4162-3.312-3.3552.0221-1.9609 1.2365-3.18099 3.2237-3.18099 2.1417 0 2.9145 1.52509 2.9808 1.74299h2.8924c-.2208-2.02622-2.1638-4.24852-5.807-4.24852-3.5769 0-5.9615 2.15694-5.9615 5.70822z"/><path d="m60.8368 7.81574c-.6845.50111-1.0377 1.59047-1.3689 2.35306l-.4637-.19612c.3312-.76255.7949-1.76477.7949-2.59268v-.32681h-2.6938v10.89361h2.6938v-4.7496c0-3.0284 2.8482-3.98707 5.5861-3.98707v-2.48375c-2.1638 0-3.3782.19609-4.5484 1.08936z"/><path d="m75.7377 16.8574c.4416-.5011.5299-1.3943.7286-2.0044l.4858.1525c-.1987.6101-.5962 1.3944-.5962 2.048l-.022.8933h2.7158v-10.89361h-2.7158l.022.82792c0 .65361.3975 1.41617.5962 2.048l-.4637.15249c-.2208-.63181-.3091-1.52509-.7728-2.00441-.7948-.8497-1.943-1.35081-3.4223-1.35081-3.2899 0-5.6083 2.46196-5.6083 5.70822 0 3.2463 2.3184 5.8608 5.6083 5.8608 1.4793 0 2.6275-.5447 3.4444-1.438zm-6.3369-4.4228c0-1.8519 1.2144-3.22447 3.047-3.22447 2.0093 0 3.0912 1.30727 3.0912 3.22447-.0663 1.7866-1.2806 3.3771-3.0912 3.3771-1.8326 0-3.047-1.5469-3.047-3.3771z"/><path d="m84.6609 17.0971c0-.6536-.3975-1.4162-.5962-2.048l.4637-.1525c.2208.61.3312 1.5033.7949 1.9608.8169.8497 1.9651 1.4162 3.4223 1.4162 3.2016 0 5.4316-2.6798 5.52-5.8172.0662-3.22448-2.208-5.7518-5.52-5.7518-1.4793 0-2.6275.5011-3.4444 1.3508-.4416.45754-.552 1.35081-.7728 1.9826l-.4637-.15247c.2208-.63183.5962-1.39438.5962-2.048v-.78434l-2.7158.02179v16.34042l2.7158-.0218zm3.7094-7.90876c2.0755 0 3.1795 1.39436 3.1795 3.22456 0 1.8519-1.104 3.377-3.1795 3.377-2.0535 0-3.2237-1.5251-3.2237-3.377 0-1.8302 1.1702-3.22456 3.2237-3.22456z"/><path d="m98.7621 2.15106-2.6938-.02178v15.79572l2.6938.0218v-.7843c0-.6536-.3754-1.4162-.5741-2.048l.4637-.1525c.1987.6318.3091 1.5251.7728 1.9826.8165.8497 1.9425 1.3508 3.4005 1.3508 3.312 0 5.63-2.5273 5.542-5.7518-.066-3.13739-2.363-5.81722-5.52-5.81722-1.48 0-2.606.56647-3.4005 1.39439-.4636.47931-.5961 1.37259-.7948 1.98263l-.4858-.15251c.2208-.63183.5962-1.39438.5962-2.048zm3.7089 13.63884c-2.053 0-3.2011-1.3726-3.2011-3.2028 0-1.8519 1.1481-3.37697 3.2011-3.37697 2.054 0 3.202 1.52507 3.202 3.37697 0 1.8302-1.148 3.2028-3.202 3.2028z"/><path d="m109.771 12.4782c0 3.5078 2.495 5.8172 6.292 5.8172 3.82 0 6.315-2.4402 6.315-5.8172 0-3.35522-2.495-5.75182-6.315-5.75182-3.797 0-6.292 2.24409-6.292 5.75182zm2.87 0c0-1.7865.971-3.18092 3.422-3.18092s3.445 1.39442 3.445 3.18092c0 1.7866-.994 3.2463-3.445 3.2463-2.428 0-3.422-1.4597-3.422-3.2463z"/><path d="m123.657 12.4782c0 3.5078 2.495 5.8172 6.292 5.8172 3.82 0 6.315-2.4402 6.315-5.8172 0-3.35522-2.495-5.75182-6.315-5.75182-3.797 0-6.292 2.24409-6.292 5.75182zm2.87 0c0-1.7865.972-3.18092 3.422-3.18092 2.451 0 3.445 1.39442 3.445 3.18092 0 1.7866-.994 3.2463-3.445 3.2463-2.428 0-3.422-1.4597-3.422-3.2463z"/><path d="m141.694 9.75481c-.618.52289-1.016 1.45979-1.347 2.20049l-.464-.1961c.353-.7407.795-1.6558.795-2.46192v-7.14622h-2.716v15.79574h2.716l-.044-4.1614 1.082-.9368 4.239 5.12h3.378l-5.785-6.6887 4.637-4.20492h-3.378z"/><path d="m15.9615.5h-13.68129c-1.25934 0-2.28021 1.00734-2.28021 2.25v21.75l9.12084-5.25 9.12086 5.25v-21.75c0-1.24266-1.0209-2.25-2.2802-2.25zm0 20.0827-6.84066-3.9375-6.84063 3.9375v-17.55145c0-.07459.03003-.14613.08348-.19887.05345-.05275.12595-.08238.20155-.08238h13.11116c.1575 0 .2851.12577.2851.28106z"/></g></svg>